<svg id="Layer_1" data-name="Layer 1" xmlns="http://www.w3.org/2000/svg" viewBox="0 0 530.6 137"><defs><style>.cls-1{fill:#648c1a;}.cls-2{fill:#003a5d;}.cls-3{fill:#004987;}.cls-4{fill:#939598;}.cls-5{fill:#6d6e71;}</style></defs><title>NICS Logo</title><path class="cls-1" d="M184.8,320.2s17.5,19.3,41,19.7c19.8.3,29.4-8.4,47.1-10.2a159.08,159.08,0,0,1,34.6.4,98.57,98.57,0,0,0-40.5-8.4c-20.9.4-28.2,9.4-45.9,9.4C194.7,331.2,184.8,320.2,184.8,320.2Z" transform="translate(-155.6 -202.9)"/><path class="cls-2" d="M173.8,262.3c5.7-11.4,23.7-26.9,45.9-25.2a50.49,50.49,0,0,1,35.8,18.8s-7.5-21.6-37.1-29.7c-21.5-5.9-52.8,1.9-61,34.8-9.8,39.2,23.7,57,23.7,57S158.5,293.4,173.8,262.3Z" transform="translate(-155.6 -202.9)"/><path class="cls-1" d="M225.2,249.5s-21.3-.8-29.5,22.5c-5.1,14.4-.4,30.6,8.8,39.2,13.4,12.6,31.9,9,31.9,9S207,334.5,187,308.9c-11.5-14.7-8.6-37.7,3.4-48.9C207,244.4,225.2,249.5,225.2,249.5Z" transform="translate(-155.6 -202.9)"/><path class="cls-3" d="M175.3,227.7S194,209.5,218.8,215s39,24.3,41,43.5C262.1,280,245,296,245,296s25.6-10.7,26.9-41.1c1-23.7-16.4-48-41.7-51.5C197.9,198.8,175.3,227.7,175.3,227.7Z" transform="translate(-155.6 -202.9)"/><path class="cls-3" d="M200.4,289.4s14.5,28.2,51.2,25.2,52.5-36.7,45-62.9-31.1-33.9-31.1-33.9,20.5,17.3,17.7,41.6c-2.4,21.1-14,36.9-37.1,42.7C219.2,308.9,200.4,289.4,200.4,289.4Z" transform="translate(-155.6 -202.9)"/><rect class="cls-4" x="287.8" y="26.1" width="15.9" height="97.1"/><rect class="cls-4" x="287.8" y="9.2" width="15.9" height="12.5"/><path class="cls-4" d="M378.9,212.1c-38.7,0-48.2,27.1-48.2,47.3v66.8h15.9V252.6s3-30.2,32.8-30.2c17.4,0,31.8,13.3,31.8,36.6v67.2h15.9V261C427.1,222.1,397.5,212.1,378.9,212.1Z" transform="translate(-155.6 -202.9)"/><path class="cls-4" d="M555.5,307.2s2,2.3,4.9,5.2a46.58,46.58,0,0,0,5.7,4.8s-15.5,12.3-42.2,9c-31.2-3.9-51.7-29.4-51.7-57.3,0-30,24.9-57.5,59.1-57.5,25.2,0,37.2,11.4,37.2,11.4a27.78,27.78,0,0,0-3.6,6.3,38.8,38.8,0,0,0-2,6.4s-10.6-10.4-32.1-10.4c-21.7,0-43.8,18.8-43.8,43.1,0,26.9,21.4,44.6,45.9,44.6C547.9,312.8,555.5,307.2,555.5,307.2Z" transform="translate(-155.6 -202.9)"/><path class="cls-4" d="M573.5,242.5c-.6,15.1,8.3,27.3,37.6,31.6,29.7,4.3,55.3,3.2,55.3,21.6,0,19-34,28.7-67.6,14.3-14.9-6.4-26.3-18.5-26.3-18.5a35.5,35.5,0,0,1-4,5.3,54,54,0,0,1-4.7,4.5S589,327.9,625,329c26,.8,61.2-5.5,61.2-34.4,0-13.9-7-25-36.3-29.9-34.1-5.7-56.8-5.1-56.8-22.6,0-21.1,31.5-19.2,42-18.4,23.7,1.7,30.3,12.8,30.3,12.8s3.7-1.2,8.6-2.3l9.6-2.1s-11.8-16.2-40.2-19.4C588.9,206.6,574,228,573.5,242.5Z" transform="translate(-155.6 -202.9)"/><path class="cls-5" d="M410.2,248.7c-2.1-12-8.7-25.6-28.6-33.2-5.8-2.2-12.6-2.3-19.3-1.4-24.9,6.6-31.6,28.4-31.6,45.3v66.8h15.9V252.6s3-30.2,32.8-30.2C394.1,222.4,406.6,231.8,410.2,248.7Z" transform="translate(-155.6 -202.9)"/></svg>